<svg width="569" height="221" viewBox="0 0 569 221" fill="none" xmlns="http://www.w3.org/2000/svg">
<g clip-path="url(#clip0_8_65)">
<path d="M229.491 187.451L181.893 198.188C181.893 198.188 172.187 197.083 181.391 183.532C182.218 182.312 183.199 180.999 184.352 179.573L209.019 167.467L208.79 165.839L203.538 128.8L201.507 114.464L216.99 100.071L219.945 97.321L259.238 133.667L258.958 134.184L242.532 163.873L229.491 187.451Z" fill="#FFB7B7"/>
<path d="M211.891 176.656L164.294 187.394C163.579 187.313 162.89 187.081 162.271 186.714C161.653 186.347 161.119 185.853 160.706 185.264C160.292 184.676 160.008 184.006 159.873 183.3C159.737 182.594 159.753 181.867 159.919 181.167C160.149 179.783 160.583 178.44 161.206 177.182C162.717 174.172 164.579 171.352 166.753 168.778L191.42 156.672L188.395 135.34L186.889 124.702L185.914 117.824L183.908 103.669L202.346 86.5265L222.427 105.096L241.639 122.872L239.046 127.552L235.955 133.145L221.119 159.976L218.096 165.442L211.891 176.656Z" fill="#FFB7B7"/>
<path d="M294.643 169.158C294.643 169.158 276.808 167.971 270.138 155.905C268.026 151.913 267.213 147.362 267.81 142.886L260.541 128.516L250.195 108.042L223.804 103.875L222.427 105.096L203.291 122.098L197.436 127.3L188.395 135.34L144.551 174.294C142.806 177.404 140.563 180.208 137.911 182.593C135.474 184.854 132.793 186.836 129.917 188.503C121.551 193.357 109.045 197.131 91.063 195.149L-3.73507 220.379L-13 156.802L66.5112 130.66L183.119 54.3849L261.836 74.5298L298.339 126.361L294.643 169.158Z" fill="#FFB7B7"/>
<path d="M564.189 0H232.214C230.939 0.0014277 229.716 0.508793 228.814 1.41076C227.912 2.31273 227.404 3.53565 227.403 4.81123V201.384C227.404 202.66 227.912 203.883 228.814 204.785C229.716 205.687 230.939 206.194 232.214 206.195H564.189C565.464 206.194 566.687 205.686 567.589 204.784C568.491 203.882 568.999 202.66 569 201.384V4.81121C568.999 3.53565 568.491 2.31277 567.589 1.41082C566.687 0.508865 565.464 0.00148411 564.189 0Z" fill="white"/>
<path d="M564.189 0H232.214C230.939 0.0014277 229.716 0.508793 228.814 1.41076C227.912 2.31273 227.404 3.53565 227.403 4.81123V201.384C227.404 202.66 227.912 203.883 228.814 204.785C229.716 205.687 230.939 206.194 232.214 206.195H564.189C565.464 206.194 566.687 205.686 567.589 204.784C568.491 203.882 568.999 202.66 569 201.384V4.81121C568.999 3.53565 568.491 2.31277 567.589 1.41082C566.687 0.508865 565.464 0.00148411 564.189 0ZM567.625 201.384C567.625 202.295 567.263 203.169 566.618 203.814C565.974 204.458 565.1 204.82 564.189 204.821H232.214C231.303 204.82 230.429 204.458 229.784 203.814C229.14 203.169 228.778 202.295 228.777 201.384V4.81121C228.778 3.89989 229.14 3.026 229.785 2.3816C230.429 1.7372 231.303 1.37503 232.214 1.37463H564.189C565.1 1.37502 565.974 1.7372 566.618 2.3816C567.263 3.026 567.625 3.89989 567.625 4.81121V201.384Z" fill="#495057"/>
<path d="M264.516 26.8069C262.884 26.8069 261.29 26.3232 259.933 25.4169C258.577 24.5106 257.52 23.2225 256.896 21.7154C256.271 20.2083 256.108 18.55 256.426 16.95C256.744 15.3501 257.53 13.8805 258.683 12.727C259.837 11.5736 261.307 10.788 262.906 10.4698C264.506 10.1516 266.165 10.3149 267.672 10.9391C269.179 11.5634 270.467 12.6205 271.373 13.9769C272.28 15.3332 272.763 16.9279 272.763 18.5591C272.763 20.7466 271.894 22.8444 270.348 24.3912C268.801 25.938 266.703 26.8069 264.516 26.8069ZM264.516 11.6859C263.156 11.6859 261.827 12.089 260.697 12.8443C259.567 13.5995 258.686 14.673 258.166 15.9289C257.645 17.1848 257.509 18.5667 257.774 19.9C258.04 21.2333 258.694 22.458 259.656 23.4192C260.617 24.3804 261.841 25.035 263.175 25.3002C264.508 25.5654 265.89 25.4293 267.146 24.9091C268.402 24.3889 269.475 23.5079 270.23 22.3776C270.986 21.2474 271.389 19.9185 271.389 18.5591C271.389 17.6565 271.211 16.7628 270.866 15.9289C270.52 15.095 270.014 14.3373 269.376 13.6991C268.737 13.0608 267.98 12.5545 267.146 12.2091C266.312 11.8637 265.418 11.6859 264.516 11.6859Z" fill="#DEE2E6"/>
<path d="M251.696 18.5591C251.696 16.9858 252.187 15.4518 253.1 14.1707C254.013 12.8896 255.303 11.9252 256.791 11.412C255.652 11.0191 254.436 10.9041 253.243 11.0764C252.051 11.2487 250.917 11.7034 249.936 12.4027C248.956 13.102 248.156 14.0255 247.604 15.0964C247.052 16.1672 246.765 17.3545 246.765 18.5591C246.765 19.7638 247.052 20.951 247.604 22.0219C248.156 23.0927 248.956 24.0163 249.936 24.7155C250.917 25.4148 252.051 25.8695 253.243 26.0419C254.436 26.2142 255.652 26.0991 256.791 25.7062C255.303 25.193 254.013 24.2286 253.1 22.9475C252.187 21.6665 251.696 20.1324 251.696 18.5591Z" fill="#DEE2E6"/>
<path d="M297.949 116.006C296.309 116.004 294.737 115.351 293.577 114.192C292.418 113.032 291.765 111.46 291.763 109.82V91.2622C291.765 89.6229 292.418 88.0514 293.578 86.8929C294.738 85.7345 296.31 85.0838 297.949 85.0838C299.589 85.0838 301.161 85.7345 302.321 86.8929C303.481 88.0514 304.133 89.6229 304.135 91.2622V109.82C304.133 111.46 303.481 113.032 302.321 114.192C301.162 115.351 299.589 116.004 297.949 116.006Z" fill="#DEE2E6"/>
<path d="M314.445 116.006C312.805 116.004 311.233 115.351 310.073 114.192C308.913 113.032 308.261 111.46 308.259 109.82V91.2622C308.261 89.6229 308.914 88.0514 310.073 86.8929C311.233 85.7345 312.806 85.0838 314.445 85.0838C316.084 85.0838 317.656 85.7345 318.816 86.8929C319.976 88.0514 320.629 89.6229 320.631 91.2622V109.82C320.629 111.46 319.977 113.032 318.817 114.192C317.657 115.351 316.085 116.004 314.445 116.006Z" fill="#DEE2E6"/>
<path d="M330.94 116.006C329.3 116.004 327.728 115.351 326.568 114.192C325.409 113.032 324.757 111.46 324.755 109.82V91.2622C324.757 89.6229 325.409 88.0514 326.569 86.8929C327.729 85.7345 329.301 85.0838 330.94 85.0838C332.58 85.0838 334.152 85.7345 335.312 86.8929C336.472 88.0514 337.124 89.6229 337.126 91.2622V109.82C337.124 111.46 336.472 113.032 335.312 114.192C334.153 115.351 332.58 116.004 330.94 116.006Z" fill="#DEE2E6"/>
<path d="M356.371 116.006C354.731 116.004 353.159 115.351 351.999 114.192C350.84 113.032 350.187 111.46 350.185 109.82V91.2622C350.187 89.6229 350.84 88.0514 352 86.8929C353.16 85.7345 354.732 85.0838 356.371 85.0838C358.011 85.0838 359.583 85.7345 360.743 86.8929C361.903 88.0514 362.555 89.6229 362.557 91.2622V109.82C362.555 111.46 361.903 113.032 360.743 114.192C359.584 115.351 358.011 116.004 356.371 116.006Z" fill="#DEE2E6"/>
<path d="M372.867 116.006C371.227 116.004 369.655 115.351 368.495 114.192C367.335 113.032 366.683 111.46 366.681 109.82V91.2622C366.683 89.6229 367.336 88.0514 368.495 86.8929C369.655 85.7345 371.228 85.0838 372.867 85.0838C374.506 85.0838 376.078 85.7345 377.238 86.8929C378.398 88.0514 379.051 89.6229 379.053 91.2622V109.82C379.051 111.46 378.399 113.032 377.239 114.192C376.079 115.351 374.507 116.004 372.867 116.006Z" fill="#DEE2E6"/>
<path d="M389.362 116.006C387.722 116.004 386.15 115.351 384.99 114.192C383.831 113.032 383.179 111.46 383.177 109.82V91.2622C383.179 89.6229 383.831 88.0514 384.991 86.8929C386.151 85.7345 387.723 85.0838 389.362 85.0838C391.002 85.0838 392.574 85.7345 393.734 86.8929C394.894 88.0514 395.546 89.6229 395.548 91.2622V109.82C395.546 111.46 394.894 113.032 393.734 114.192C392.575 115.351 391.002 116.004 389.362 116.006Z" fill="#DEE2E6"/>
<path d="M414.793 116.006C413.153 116.004 411.581 115.351 410.421 114.192C409.262 113.032 408.609 111.46 408.607 109.82V91.2622C408.609 89.6229 409.262 88.0514 410.422 86.8929C411.582 85.7345 413.154 85.0838 414.793 85.0838C416.433 85.0838 418.005 85.7345 419.165 86.8929C420.325 88.0514 420.977 89.6229 420.979 91.2622V109.82C420.977 111.46 420.325 113.032 419.165 114.192C418.006 115.351 416.433 116.004 414.793 116.006Z" fill="#DEE2E6"/>
<path d="M431.289 116.006C429.649 116.004 428.076 115.351 426.917 114.192C425.757 113.032 425.105 111.46 425.103 109.82V91.2622C425.105 89.6229 425.757 88.0514 426.917 86.8929C428.077 85.7345 429.649 85.0838 431.289 85.0838C432.928 85.0838 434.5 85.7345 435.66 86.8929C436.82 88.0514 437.473 89.6229 437.475 91.2622V109.82C437.473 111.46 436.82 113.032 435.661 114.192C434.501 115.351 432.929 116.004 431.289 116.006Z" fill="#DEE2E6"/>
<path d="M447.784 116.006C446.144 116.004 444.572 115.351 443.412 114.192C442.253 113.032 441.6 111.46 441.599 109.82V91.2622C441.601 89.6229 442.253 88.0514 443.413 86.8929C444.573 85.7345 446.145 85.0838 447.784 85.0838C449.424 85.0838 450.996 85.7345 452.156 86.8929C453.316 88.0514 453.968 89.6229 453.97 91.2622V109.82C453.968 111.46 453.316 113.032 452.156 114.192C450.997 115.351 449.424 116.004 447.784 116.006Z" fill="#DEE2E6"/>
<path d="M473.215 116.006C471.575 116.004 470.003 115.351 468.843 114.192C467.684 113.032 467.031 111.46 467.029 109.82V91.2622C467.031 89.6229 467.684 88.0514 468.844 86.8929C470.004 85.7345 471.576 85.0838 473.215 85.0838C474.855 85.0838 476.427 85.7345 477.587 86.8929C478.747 88.0514 479.399 89.6229 479.401 91.2622V109.82C479.399 111.46 478.747 113.032 477.587 114.192C476.428 115.351 474.855 116.004 473.215 116.006Z" fill="#DEE2E6"/>
<path d="M489.711 116.006C488.071 116.004 486.499 115.351 485.339 114.192C484.179 113.032 483.527 111.46 483.525 109.82V91.2622C483.527 89.6229 484.18 88.0514 485.339 86.8929C486.499 85.7345 488.072 85.0838 489.711 85.0838C491.35 85.0838 492.922 85.7345 494.082 86.8929C495.242 88.0514 495.895 89.6229 495.897 91.2622V109.82C495.895 111.46 495.243 113.032 494.083 114.192C492.923 115.351 491.351 116.004 489.711 116.006Z" fill="#DEE2E6"/>
<path d="M506.206 116.006C504.566 116.004 502.994 115.351 501.834 114.192C500.675 113.032 500.022 111.46 500.021 109.82V91.2622C500.023 89.6229 500.675 88.0514 501.835 86.8929C502.995 85.7345 504.567 85.0838 506.206 85.0838C507.846 85.0838 509.418 85.7345 510.578 86.8929C511.738 88.0514 512.39 89.6229 512.392 91.2622V109.82C512.39 111.46 511.738 113.032 510.578 114.192C509.419 115.351 507.846 116.004 506.206 116.006Z" fill="#DEE2E6"/>
<path d="M339.888 184.852H250.921C250.375 184.853 249.834 184.746 249.329 184.538C248.824 184.329 248.365 184.023 247.978 183.637C247.592 183.251 247.285 182.792 247.076 182.288C246.867 181.783 246.759 181.242 246.759 180.696C246.759 180.149 246.867 179.608 247.076 179.104C247.285 178.599 247.592 178.141 247.978 177.755C248.365 177.368 248.824 177.062 249.329 176.854C249.834 176.645 250.375 176.538 250.921 176.539H339.888C340.989 176.541 342.045 176.979 342.823 177.759C343.601 178.538 344.038 179.594 344.038 180.696C344.038 181.797 343.601 182.853 342.823 183.633C342.045 184.412 340.989 184.851 339.888 184.852Z" fill="#DEE2E6"/>
<path d="M311.364 166.982H279.445C278.343 166.982 277.285 166.544 276.506 165.764C275.727 164.985 275.289 163.928 275.289 162.825C275.289 161.723 275.727 160.666 276.506 159.886C277.285 159.107 278.343 158.669 279.445 158.669H311.364C312.467 158.669 313.524 159.107 314.303 159.886C315.083 160.666 315.521 161.723 315.521 162.825C315.521 163.928 315.083 164.985 314.303 165.764C313.524 166.544 312.467 166.982 311.364 166.982Z" fill="#DEE2E6"/>
<path d="M567.378 41.088H228.53V42.4627H567.378V41.088Z" fill="#495057"/>
<path opacity="0.15" d="M189.786 180.482L189.065 178.855L218.442 165.827L225.445 141.258L214.889 132.722L216.007 131.337L227.48 140.613L219.926 167.116L189.786 180.482Z" fill="#212529"/>
<path opacity="0.1" d="M161.206 177.182L153.484 180.943L137.911 182.593C135.474 184.854 132.793 186.836 129.917 188.503L116.261 188.05L93.1967 187.328L171.17 120.842L186.889 124.702C186.889 124.702 160.478 178.734 161.206 177.182Z" fill="#212529"/>
<path d="M270.138 155.905C268.091 156.299 265.847 156.626 263.367 156.875C250.566 158.155 223.505 159.857 221.119 159.976C205.091 160.731 195.014 160.722 195.014 160.722L161.206 177.182L153.484 180.943L90.8934 187.572L175.646 115.304L185.914 117.824L203.291 122.098L222.435 126.805L239.046 127.552L260.541 128.516L277.915 129.296C280.925 129.401 283.771 130.692 285.833 132.888C287.894 135.084 289.002 138.007 288.916 141.018C288.643 146.749 284.668 153.082 270.138 155.905Z" fill="#FFB7B7"/>
<path opacity="0.15" d="M276.727 151.548C276.45 151.463 269.922 149.41 267.851 143.665C266.458 139.802 267.438 135.281 270.764 130.23L272.251 131.209C269.254 135.761 268.335 139.746 269.522 143.05C271.282 147.955 277.189 149.827 277.248 149.846L276.727 151.548Z" fill="#212529"/>
<path opacity="0.15" d="M192.277 161.062L162.367 175.631L163.146 177.231L193.057 162.663L192.277 161.062Z" fill="#212529"/>
<path opacity="0.15" d="M181.109 119.756L223.477 103.046L224.131 104.703L187.518 119.143L218.634 124.955L218.307 126.705L181.109 119.756Z" fill="#212529"/>
</g>
<defs>
<clipPath id="clip0_8_65">
<rect width="582" height="220.379" fill="white" transform="translate(-13)"/>
</clipPath>
</defs>
</svg>
