<svg width="375" height="812" viewBox="0 0 375 812" fill="none" xmlns="http://www.w3.org/2000/svg">
<g clip-path="url(#clip0_254_1201)">
<rect width="375" height="812" fill="black"/>
<g clip-path="url(#clip1_254_1201)">
<mask id="mask0_254_1201" style="mask-type:alpha" maskUnits="userSpaceOnUse" x="-320" y="-171" width="1040" height="693">
<rect x="-320" y="-170.946" width="1040" height="692" fill="url(#paint0_diamond_254_1201)"/>
</mask>
<g mask="url(#mask0_254_1201)">
<g opacity="0.7">
<circle cx="317.617" cy="264.418" r="0.699952" fill="white" fill-opacity="0.5"/>
<circle cx="73.2968" cy="189.995" r="0.866106" fill="white" fill-opacity="0.3"/>
<circle cx="6.76957" cy="213.448" r="0.639683" fill="white" fill-opacity="0.6"/>
<circle cx="199.131" cy="402.851" r="0.610874" fill="white" fill-opacity="0.4"/>
<circle cx="149.496" cy="324.799" r="0.700234" fill="white" fill-opacity="0.4"/>
<circle cx="344.986" cy="287.05" r="0.837128" fill="white" fill-opacity="0.5"/>
<circle cx="2.60892" cy="153.048" r="0.621616" fill="white" fill-opacity="0.6"/>
<circle cx="18.7886" cy="368.724" r="0.818832" fill="white" fill-opacity="0.4"/>
<circle cx="8.09022" cy="417.224" r="0.776743" fill="white" fill-opacity="0.3"/>
<circle cx="134.096" cy="84.4473" r="0.690477" fill="white" fill-opacity="0.6"/>
<circle cx="13.4037" cy="34.7934" r="0.76211" fill="white" fill-opacity="0.5"/>
<circle cx="181.993" cy="276.787" r="0.637879" fill="white" fill-opacity="0.5"/>
<circle cx="260.685" cy="253.067" r="0.596974" fill="white" fill-opacity="0.3"/>
<circle cx="229.999" cy="369.784" r="0.694188" fill="white" fill-opacity="0.5"/>
<circle cx="76.6807" cy="408.857" r="0.697257" fill="white" fill-opacity="0.3"/>
<circle cx="6.18169" cy="414.723" r="0.643604" fill="white" fill-opacity="0.5"/>
<circle cx="70.1676" cy="27.6246" r="0.69691" fill="white" fill-opacity="0.5"/>
<circle cx="31.1801" cy="365.725" r="0.778728" fill="white" fill-opacity="0.3"/>
<circle cx="237.885" cy="318.471" r="0.882725" fill="white" fill-opacity="0.4"/>
<circle cx="263.168" cy="86.2451" r="0.711451" fill="white" fill-opacity="0.6"/>
<circle cx="127.6" cy="380.452" r="0.706451" fill="white" fill-opacity="0.4"/>
<circle cx="5.82346" cy="233.811" r="0.876195" fill="white" fill-opacity="0.5"/>
<circle cx="372.245" cy="403.698" r="0.866262" fill="white" fill-opacity="0.6"/>
<circle cx="233.049" cy="424.928" r="0.784851" fill="white" fill-opacity="0.6"/>
<circle cx="314.122" cy="377.542" r="0.756572" fill="white" fill-opacity="0.3"/>
<circle cx="123.443" cy="99.2501" r="0.693902" fill="white" fill-opacity="0.3"/>
<circle cx="373.827" cy="47.7263" r="0.671636" fill="white" fill-opacity="0.5"/>
<circle cx="2.12279" cy="12.8577" r="0.729233" fill="white" fill-opacity="0.4"/>
<circle cx="228.811" cy="80.3036" r="0.689881" fill="white" fill-opacity="0.5"/>
<circle cx="133.579" cy="136.616" r="0.765212" fill="white" fill-opacity="0.4"/>
<circle cx="112.963" cy="375.879" r="0.869681" fill="white" fill-opacity="0.6"/>
<circle cx="135.212" cy="433.645" r="0.622984" fill="white" fill-opacity="0.4"/>
<circle cx="151.86" cy="428.39" r="0.695627" fill="white" fill-opacity="0.5"/>
<circle cx="206.936" cy="62.5722" r="0.718168" fill="white" fill-opacity="0.6"/>
<circle cx="48.4151" cy="342.706" r="0.84679" fill="white" fill-opacity="0.4"/>
<circle cx="112.953" cy="419.674" r="0.858873" fill="white" fill-opacity="0.4"/>
<circle cx="76.6113" cy="298.088" r="0.627863" fill="white" fill-opacity="0.4"/>
<circle cx="78.4746" cy="309.424" r="0.715796" fill="white" fill-opacity="0.3"/>
<circle cx="336.534" cy="386.339" r="0.674169" fill="white" fill-opacity="0.5"/>
<circle cx="302.379" cy="238.524" r="0.852779" fill="white" fill-opacity="0.6"/>
<circle cx="159.522" cy="304.633" r="0.661517" fill="white" fill-opacity="0.3"/>
<circle cx="43.6912" cy="333.838" r="0.859218" fill="white" fill-opacity="0.6"/>
<circle cx="187.971" cy="212.321" r="0.696622" fill="white" fill-opacity="0.3"/>
<circle cx="7.32381" cy="406.986" r="0.602129" fill="white" fill-opacity="0.6"/>
<circle cx="91.4785" cy="386.36" r="0.695275" fill="white" fill-opacity="0.5"/>
<circle cx="355.043" cy="101.164" r="0.831583" fill="white" fill-opacity="0.4"/>
<circle cx="30.6133" cy="167.438" r="0.80469" fill="white" fill-opacity="0.5"/>
<circle cx="51.969" cy="219.577" r="0.848888" fill="white" fill-opacity="0.4"/>
<circle cx="231.884" cy="313.655" r="0.803339" fill="white" fill-opacity="0.3"/>
<circle cx="359.754" cy="175.728" r="0.806592" fill="white" fill-opacity="0.4"/>
<circle cx="78.5632" cy="72.1301" r="0.804401" fill="white" fill-opacity="0.4"/>
<circle cx="308.897" cy="234.978" r="0.859109" fill="white" fill-opacity="0.5"/>
<circle cx="354.292" cy="11.024" r="0.671462" fill="white" fill-opacity="0.6"/>
<circle cx="17.0543" cy="24.2359" r="0.859953" fill="white" fill-opacity="0.6"/>
<circle cx="110.965" cy="255.486" r="0.647362" fill="white" fill-opacity="0.3"/>
<circle cx="243.771" cy="41.9865" r="0.85128" fill="white" fill-opacity="0.6"/>
<circle cx="121.095" cy="249.632" r="0.713183" fill="white" fill-opacity="0.5"/>
<circle cx="271.557" cy="207.701" r="0.813803" fill="white" fill-opacity="0.3"/>
<circle cx="229.499" cy="376.387" r="0.785658" fill="white" fill-opacity="0.4"/>
<circle cx="349.076" cy="22.3845" r="0.784446" fill="white" fill-opacity="0.3"/>
<circle cx="286.221" cy="59.5729" r="0.678364" fill="white" fill-opacity="0.4"/>
<circle cx="130.656" cy="200.587" r="0.802016" fill="white" fill-opacity="0.4"/>
<circle cx="56.6197" cy="195.812" r="0.763236" fill="white" fill-opacity="0.4"/>
<circle cx="273.369" cy="361.059" r="0.849438" fill="white" fill-opacity="0.5"/>
<circle cx="305.715" cy="369.726" r="0.636609" fill="white" fill-opacity="0.5"/>
<circle cx="245.373" cy="69.0427" r="0.676482" fill="white" fill-opacity="0.6"/>
<circle cx="161.284" cy="0.345249" r="0.648472" fill="white" fill-opacity="0.4"/>
<circle cx="248.355" cy="234.818" r="0.698949" fill="white" fill-opacity="0.6"/>
<circle cx="226.008" cy="297.122" r="0.846621" fill="white" fill-opacity="0.6"/>
<circle cx="8.6191" cy="203.456" r="0.711873" fill="white" fill-opacity="0.5"/>
<circle cx="326.602" cy="47.2676" r="0.804688" fill="white" fill-opacity="0.5"/>
<circle cx="120.592" cy="108.239" r="0.803196" fill="white" fill-opacity="0.5"/>
<circle cx="156.784" cy="41.4261" r="0.883131" fill="white" fill-opacity="0.5"/>
<circle cx="172.61" cy="84.4839" r="0.727048" fill="white" fill-opacity="0.6"/>
<circle cx="114.102" cy="237.902" r="0.82322" fill="white" fill-opacity="0.4"/>
<circle cx="103.969" cy="41.2978" r="0.754837" fill="white" fill-opacity="0.5"/>
<circle cx="56.133" cy="439.811" r="0.868386" fill="white" fill-opacity="0.5"/>
<circle cx="136.626" cy="409.013" r="0.853602" fill="white" fill-opacity="0.6"/>
<circle cx="164.256" cy="322.392" r="0.660223" fill="white" fill-opacity="0.5"/>
<circle cx="27.4626" cy="85.5554" r="0.614002" fill="white" fill-opacity="0.4"/>
<circle cx="197.444" cy="250.8" r="0.69723" fill="white" fill-opacity="0.6"/>
<circle cx="220.621" cy="395.332" r="0.78747" fill="white" fill-opacity="0.3"/>
<circle cx="139.371" cy="432.478" r="0.639587" fill="white" fill-opacity="0.4"/>
<circle cx="181.561" cy="15.2946" r="0.798039" fill="white" fill-opacity="0.6"/>
<circle cx="97.5514" cy="43.7599" r="0.848304" fill="white" fill-opacity="0.5"/>
<circle cx="327.017" cy="394.581" r="0.628061" fill="white" fill-opacity="0.6"/>
<circle cx="197.951" cy="244.795" r="0.613189" fill="white" fill-opacity="0.3"/>
<circle cx="97.449" cy="297.615" r="0.745889" fill="white" fill-opacity="0.4"/>
<circle cx="54.8997" cy="288.217" r="0.819658" fill="white" fill-opacity="0.6"/>
<circle cx="289.733" cy="41.7731" r="0.637861" fill="white" fill-opacity="0.5"/>
<circle cx="345.967" cy="327.102" r="0.634724" fill="white" fill-opacity="0.6"/>
<circle cx="180.299" cy="48.9583" r="0.719579" fill="white" fill-opacity="0.5"/>
<circle cx="354.834" cy="424.174" r="0.622914" fill="white" fill-opacity="0.4"/>
<circle cx="-0.777561" cy="150.256" r="0.788845" fill="white" fill-opacity="0.4"/>
<circle cx="252.413" cy="283.274" r="0.613337" fill="white" fill-opacity="0.4"/>
<circle cx="269.103" cy="426.055" r="0.72802" fill="white" fill-opacity="0.4"/>
<circle cx="267.43" cy="121.882" r="0.830232" fill="white" fill-opacity="0.4"/>
<circle cx="58.9966" cy="59.0762" r="0.773981" fill="white" fill-opacity="0.3"/>
<circle cx="194.41" cy="386.88" r="0.622524" fill="white" fill-opacity="0.6"/>
<circle cx="121.202" cy="60.3068" r="0.820446" fill="white" fill-opacity="0.5"/>
<circle cx="180.217" cy="314.674" r="0.638211" fill="white" fill-opacity="0.5"/>
<circle cx="197.505" cy="305.322" r="0.758062" fill="white" fill-opacity="0.4"/>
<circle cx="53.0762" cy="94.0005" r="0.771508" fill="white" fill-opacity="0.3"/>
<circle cx="246.023" cy="145.466" r="0.734636" fill="white" fill-opacity="0.5"/>
<circle cx="215.834" cy="318.917" r="0.737588" fill="white" fill-opacity="0.4"/>
<circle cx="126.993" cy="85.6335" r="0.692114" fill="white" fill-opacity="0.5"/>
</g>
<g opacity="0.6">
<g opacity="0.1">
<g clip-path="url(#clip2_254_1201)">
<path d="M20.9102 -93.1152V769.871" stroke="white" stroke-width="0.654481"/>
<path d="M62.7969 -93.1152V769.871" stroke="white" stroke-width="0.654481"/>
<path d="M104.684 -93.1152V769.871" stroke="white" stroke-width="0.654481"/>
<path d="M146.571 -93.1152V769.871" stroke="white" stroke-width="0.654481"/>
<path d="M188.458 -93.1152V769.871" stroke="white" stroke-width="0.654481"/>
<path d="M230.345 -93.1152V769.871" stroke="white" stroke-width="0.654481"/>
<path d="M272.231 -93.1152V769.871" stroke="white" stroke-width="0.654481"/>
<path d="M314.118 -93.1152V769.871" stroke="white" stroke-width="0.654481"/>
<path d="M356.005 -93.1152V769.871" stroke="white" stroke-width="0.654481"/>
</g>
<g clip-path="url(#clip3_254_1201)">
<path d="M-314.184 32.5449L934 32.5449" stroke="white" stroke-width="0.654481"/>
<path d="M-314.184 74.4316L934 74.4316" stroke="white" stroke-width="0.654481"/>
<path d="M-314.184 116.318L934 116.318" stroke="white" stroke-width="0.654481"/>
<path d="M-314.184 158.206L934 158.206" stroke="white" stroke-width="0.654481"/>
<path d="M-314.184 200.092L934 200.092" stroke="white" stroke-width="0.654481"/>
<path d="M-314.184 241.979L934 241.979" stroke="white" stroke-width="0.654481"/>
<path d="M-314.184 283.866L934 283.866" stroke="white" stroke-width="0.654481"/>
<path d="M-314.184 325.752L934 325.752" stroke="white" stroke-width="0.654481"/>
<path d="M-314.184 367.639L934 367.639" stroke="white" stroke-width="0.654481"/>
<path d="M-314.184 409.526L934 409.526" stroke="white" stroke-width="0.654481"/>
<path d="M-314.184 451.413L934 451.413" stroke="white" stroke-width="0.654481"/>
<path d="M-314.184 493.299L934 493.299" stroke="white" stroke-width="0.654481"/>
</g>
</g>
</g>
</g>
</g>
<g filter="url(#filter0_f_254_1201)">
<path d="M101 147.091L376.652 295.376L469.553 -20.9504L313.749 -104.764L101 147.091Z" fill="url(#paint1_linear_254_1201)" fill-opacity="0.15"/>
</g>
</g>
<defs>
<filter id="filter0_f_254_1201" x="37.2667" y="-168.497" width="496.019" height="527.606" filterUnits="userSpaceOnUse" color-interpolation-filters="sRGB">
<feFlood flood-opacity="0" result="BackgroundImageFix"/>
<feBlend mode="normal" in="SourceGraphic" in2="BackgroundImageFix" result="shape"/>
<feGaussianBlur stdDeviation="31.8666" result="effect1_foregroundBlur_254_1201"/>
</filter>
<radialGradient id="paint0_diamond_254_1201" cx="0" cy="0" r="1" gradientUnits="userSpaceOnUse" gradientTransform="translate(200 128.423) rotate(90) scale(376.812 876.393)">
<stop stop-color="white"/>
<stop offset="1" stop-color="#D9D9D9" stop-opacity="0"/>
</radialGradient>
<linearGradient id="paint1_linear_254_1201" x1="238.826" y1="221.234" x2="359.894" y2="-16.7568" gradientUnits="userSpaceOnUse">
<stop stop-color="white" stop-opacity="0"/>
<stop offset="1" stop-color="white"/>
</linearGradient>
<clipPath id="clip0_254_1201">
<rect width="375" height="812" fill="white"/>
</clipPath>
<clipPath id="clip1_254_1201">
<rect width="376" height="812" fill="white" transform="translate(0 -15.9458)"/>
</clipPath>
<clipPath id="clip2_254_1201">
<rect width="1248.18" height="806.841" fill="white" transform="translate(-314.184 -93.1152)"/>
</clipPath>
<clipPath id="clip3_254_1201">
<rect width="1248.18" height="806.841" fill="white" transform="translate(-314.184 -93.1152)"/>
</clipPath>
</defs>
</svg>
