<svg width="24" height="24" viewBox="0 0 24 24" fill="none" xmlns="http://www.w3.org/2000/svg">
<path d="M13.299 3.14844L21.933 18.1024C22.0647 18.3305 22.134 18.5891 22.134 18.8524C22.134 19.1157 22.0647 19.3744 21.933 19.6024C21.8014 19.8304 21.612 20.0198 21.384 20.1515C21.156 20.2831 20.8973 20.3524 20.634 20.3524H3.366C3.1027 20.3524 2.84404 20.2831 2.61601 20.1515C2.38799 20.0198 2.19864 19.8304 2.06699 19.6024C1.93534 19.3744 1.86604 19.1157 1.86604 18.8524C1.86604 18.5891 1.93535 18.3305 2.067 18.1024L10.701 3.14844C11.278 2.14844 12.721 2.14844 13.299 3.14844ZM12 15.0004C11.7348 15.0004 11.4804 15.1058 11.2929 15.2933C11.1054 15.4809 11 15.7352 11 16.0004C11 16.2657 11.1054 16.52 11.2929 16.7075C11.4804 16.8951 11.7348 17.0004 12 17.0004C12.2652 17.0004 12.5196 16.8951 12.7071 16.7075C12.8946 16.52 13 16.2657 13 16.0004C13 15.7352 12.8946 15.4809 12.7071 15.2933C12.5196 15.1058 12.2652 15.0004 12 15.0004ZM12 8.00044C11.7551 8.00047 11.5187 8.09039 11.3356 8.25315C11.1526 8.41591 11.0357 8.64019 11.007 8.88344L11 9.00044V13.0004C11.0003 13.2553 11.0979 13.5005 11.2728 13.6858C11.4478 13.8711 11.687 13.9827 11.9414 13.9976C12.1958 14.0125 12.4464 13.9298 12.6418 13.7662C12.8373 13.6026 12.9629 13.3705 12.993 13.1174L13 13.0004V9.00044C13 8.73522 12.8946 8.48087 12.7071 8.29333C12.5196 8.10579 12.2652 8.00044 12 8.00044Z" fill="#F47A7A"/>
</svg>
