<svg width="70" height="70" viewBox="0 0 70 70" fill="none" xmlns="http://www.w3.org/2000/svg">
<circle cx="35" cy="35" r="35" fill="#CCFC8F"/>
<path d="M44.3125 30.3125H37.75V23.75C37.75 23.0041 37.4537 22.2887 36.9262 21.7613C36.3988 21.2338 35.6834 20.9375 34.9375 20.9375H23.6875C22.9416 20.9375 22.2262 21.2338 21.6988 21.7613C21.1713 22.2887 20.875 23.0041 20.875 23.75V48.125C20.875 48.3736 20.9738 48.6121 21.1496 48.7879C21.3254 48.9637 21.5639 49.0625 21.8125 49.0625H27.9062C28.0306 49.0625 28.1498 49.0131 28.2377 48.9252C28.3256 48.8373 28.375 48.7181 28.375 48.5938V44.4014C28.375 43.8969 28.7629 43.4639 29.2674 43.4387C29.3941 43.4326 29.5208 43.4523 29.6397 43.4966C29.7587 43.5409 29.8674 43.6088 29.9592 43.6964C30.0511 43.7839 30.1243 43.8892 30.1742 44.0059C30.2242 44.1225 30.25 44.2481 30.25 44.375V48.5938C30.25 48.7181 30.2994 48.8373 30.3873 48.9252C30.4752 49.0131 30.5944 49.0625 30.7188 49.0625H46.1875C46.4361 49.0625 46.6746 48.9637 46.8504 48.7879C47.0262 48.6121 47.125 48.3736 47.125 48.125V33.125C47.125 32.3791 46.8287 31.6637 46.3012 31.1363C45.7738 30.6088 45.0584 30.3125 44.3125 30.3125ZM24.7469 45.3049C24.5527 45.3303 24.3555 45.2942 24.1828 45.2018C24.0102 45.1094 23.8708 44.9652 23.7843 44.7896C23.6978 44.6139 23.6684 44.4156 23.7004 44.2224C23.7323 44.0292 23.8239 43.8508 23.9624 43.7124C24.1008 43.5739 24.2792 43.4823 24.4724 43.4504C24.6656 43.4184 24.8639 43.4478 25.0396 43.5343C25.2152 43.6208 25.3594 43.7602 25.4518 43.9328C25.5442 44.1055 25.5803 44.3027 25.5549 44.4969C25.5281 44.7018 25.4343 44.8921 25.2882 45.0382C25.1421 45.1843 24.9518 45.2781 24.7469 45.3049ZM24.7469 40.6174C24.5527 40.6428 24.3555 40.6067 24.1828 40.5143C24.0102 40.4219 23.8708 40.2777 23.7843 40.1021C23.6978 39.9264 23.6684 39.7281 23.7004 39.5349C23.7323 39.3417 23.8239 39.1633 23.9624 39.0249C24.1008 38.8864 24.2792 38.7948 24.4724 38.7629C24.6656 38.7309 24.8639 38.7603 25.0396 38.8468C25.2152 38.9333 25.3594 39.0727 25.4518 39.2453C25.5442 39.418 25.5803 39.6152 25.5549 39.8094C25.5281 40.0143 25.4343 40.2046 25.2882 40.3507C25.1421 40.4968 24.9518 40.5906 24.7469 40.6174ZM24.7469 35.9299C24.5527 35.9553 24.3555 35.9192 24.1828 35.8268C24.0102 35.7344 23.8708 35.5902 23.7843 35.4146C23.6978 35.2389 23.6684 35.0406 23.7004 34.8474C23.7323 34.6542 23.8239 34.4759 23.9624 34.3374C24.1008 34.1989 24.2792 34.1073 24.4724 34.0754C24.6656 34.0434 24.8639 34.0728 25.0396 34.1593C25.2152 34.2458 25.3594 34.3852 25.4518 34.5578C25.5442 34.7305 25.5803 34.9277 25.5549 35.1219C25.5281 35.3268 25.4343 35.5171 25.2882 35.6632C25.1421 35.8093 24.9518 35.9031 24.7469 35.9299ZM24.7469 31.2424C24.5527 31.2678 24.3555 31.2317 24.1828 31.1393C24.0102 31.0469 23.8708 30.9027 23.7843 30.7271C23.6978 30.5514 23.6684 30.3531 23.7004 30.1599C23.7323 29.9667 23.8239 29.7884 23.9624 29.6499C24.1008 29.5114 24.2792 29.4198 24.4724 29.3879C24.6656 29.3559 24.8639 29.3853 25.0396 29.4718C25.2152 29.5583 25.3594 29.6977 25.4518 29.8703C25.5442 30.043 25.5803 30.2402 25.5549 30.4344C25.5281 30.6393 25.4343 30.8296 25.2882 30.9757C25.1421 31.1218 24.9518 31.2156 24.7469 31.2424ZM24.7469 26.5549C24.5527 26.5803 24.3555 26.5442 24.1828 26.4518C24.0102 26.3594 23.8708 26.2152 23.7843 26.0396C23.6978 25.8639 23.6684 25.6656 23.7004 25.4724C23.7323 25.2792 23.8239 25.1008 23.9624 24.9624C24.1008 24.8239 24.2792 24.7323 24.4724 24.7004C24.6656 24.6684 24.8639 24.6978 25.0396 24.7843C25.2152 24.8708 25.3594 25.0102 25.4518 25.1828C25.5442 25.3555 25.5803 25.5527 25.5549 25.7469C25.5281 25.9518 25.4343 26.1421 25.2882 26.2882C25.1421 26.4343 24.9518 26.5281 24.7469 26.5549ZM29.4344 40.6174C29.2402 40.6428 29.043 40.6067 28.8703 40.5143C28.6977 40.4219 28.5583 40.2777 28.4718 40.1021C28.3853 39.9264 28.3559 39.7281 28.3879 39.5349C28.4198 39.3417 28.5114 39.1633 28.6499 39.0249C28.7884 38.8864 28.9667 38.7948 29.1599 38.7629C29.3531 38.7309 29.5514 38.7603 29.7271 38.8468C29.9027 38.9333 30.0469 39.0727 30.1393 39.2453C30.2317 39.418 30.2678 39.6152 30.2424 39.8094C30.2156 40.0143 30.1218 40.2046 29.9757 40.3507C29.8296 40.4968 29.6393 40.5906 29.4344 40.6174ZM29.4344 35.9299C29.2402 35.9553 29.043 35.9192 28.8703 35.8268C28.6977 35.7344 28.5583 35.5902 28.4718 35.4146C28.3853 35.2389 28.3559 35.0406 28.3879 34.8474C28.4198 34.6542 28.5114 34.4759 28.6499 34.3374C28.7884 34.1989 28.9667 34.1073 29.1599 34.0754C29.3531 34.0434 29.5514 34.0728 29.7271 34.1593C29.9027 34.2458 30.0469 34.3852 30.1393 34.5578C30.2317 34.7305 30.2678 34.9277 30.2424 35.1219C30.2156 35.3268 30.1218 35.5171 29.9757 35.6632C29.8296 35.8093 29.6393 35.9031 29.4344 35.9299ZM29.4344 31.2424C29.2402 31.2678 29.043 31.2317 28.8703 31.1393C28.6977 31.0469 28.5583 30.9027 28.4718 30.7271C28.3853 30.5514 28.3559 30.3531 28.3879 30.1599C28.4198 29.9667 28.5114 29.7884 28.6499 29.6499C28.7884 29.5114 28.9667 29.4198 29.1599 29.3879C29.3531 29.3559 29.5514 29.3853 29.7271 29.4718C29.9027 29.5583 30.0469 29.6977 30.1393 29.8703C30.2317 30.043 30.2678 30.2402 30.2424 30.4344C30.2156 30.6393 30.1218 30.8296 29.9757 30.9757C29.8296 31.1218 29.6393 31.2156 29.4344 31.2424ZM29.4344 26.5549C29.2402 26.5803 29.043 26.5442 28.8703 26.4518C28.6977 26.3594 28.5583 26.2152 28.4718 26.0396C28.3853 25.8639 28.3559 25.6656 28.3879 25.4724C28.4198 25.2792 28.5114 25.1008 28.6499 24.9624C28.7884 24.8239 28.9667 24.7323 29.1599 24.7004C29.3531 24.6684 29.5514 24.6978 29.7271 24.7843C29.9027 24.8708 30.0469 25.0102 30.1393 25.1828C30.2317 25.3555 30.2678 25.5527 30.2424 25.7469C30.2156 25.9518 30.1218 26.1421 29.9757 26.2882C29.8296 26.4343 29.6393 26.5281 29.4344 26.5549ZM34.1219 45.3049C33.9277 45.3303 33.7305 45.2942 33.5578 45.2018C33.3852 45.1094 33.2458 44.9652 33.1593 44.7896C33.0728 44.6139 33.0434 44.4156 33.0754 44.2224C33.1073 44.0292 33.1989 43.8508 33.3374 43.7124C33.4759 43.5739 33.6542 43.4823 33.8474 43.4504C34.0406 43.4184 34.2389 43.4478 34.4146 43.5343C34.5902 43.6208 34.7344 43.7602 34.8268 43.9328C34.9192 44.1055 34.9553 44.3027 34.9299 44.4969C34.9031 44.7018 34.8093 44.8921 34.6632 45.0382C34.5171 45.1843 34.3268 45.2781 34.1219 45.3049ZM34.1219 40.6174C33.9277 40.6428 33.7305 40.6067 33.5578 40.5143C33.3852 40.4219 33.2458 40.2777 33.1593 40.1021C33.0728 39.9264 33.0434 39.7281 33.0754 39.5349C33.1073 39.3417 33.1989 39.1633 33.3374 39.0249C33.4759 38.8864 33.6542 38.7948 33.8474 38.7629C34.0406 38.7309 34.2389 38.7603 34.4146 38.8468C34.5902 38.9333 34.7344 39.0727 34.8268 39.2453C34.9192 39.418 34.9553 39.6152 34.9299 39.8094C34.9031 40.0143 34.8093 40.2046 34.6632 40.3507C34.5171 40.4968 34.3268 40.5906 34.1219 40.6174ZM34.1219 35.9299C33.9277 35.9553 33.7305 35.9192 33.5578 35.8268C33.3852 35.7344 33.2458 35.5902 33.1593 35.4146C33.0728 35.2389 33.0434 35.0406 33.0754 34.8474C33.1073 34.6542 33.1989 34.4759 33.3374 34.3374C33.4759 34.1989 33.6542 34.1073 33.8474 34.0754C34.0406 34.0434 34.2389 34.0728 34.4146 34.1593C34.5902 34.2458 34.7344 34.3852 34.8268 34.5578C34.9192 34.7305 34.9553 34.9277 34.9299 35.1219C34.9031 35.3268 34.8093 35.5171 34.6632 35.6632C34.5171 35.8093 34.3268 35.9031 34.1219 35.9299ZM34.1219 31.2424C33.9277 31.2678 33.7305 31.2317 33.5578 31.1393C33.3852 31.0469 33.2458 30.9027 33.1593 30.7271C33.0728 30.5514 33.0434 30.3531 33.0754 30.1599C33.1073 29.9667 33.1989 29.7884 33.3374 29.6499C33.4759 29.5114 33.6542 29.4198 33.8474 29.3879C34.0406 29.3559 34.2389 29.3853 34.4146 29.4718C34.5902 29.5583 34.7344 29.6977 34.8268 29.8703C34.9192 30.043 34.9553 30.2402 34.9299 30.4344C34.9031 30.6393 34.8093 30.8296 34.6632 30.9757C34.5171 31.1218 34.3268 31.2156 34.1219 31.2424ZM34.1219 26.5549C33.9277 26.5803 33.7305 26.5442 33.5578 26.4518C33.3852 26.3594 33.2458 26.2152 33.1593 26.0396C33.0728 25.8639 33.0434 25.6656 33.0754 25.4724C33.1073 25.2792 33.1989 25.1008 33.3374 24.9624C33.4759 24.8239 33.6542 24.7323 33.8474 24.7004C34.0406 24.6684 34.2389 24.6978 34.4146 24.7843C34.5902 24.8708 34.7344 25.0102 34.8268 25.1828C34.9192 25.3555 34.9553 25.5527 34.9299 25.7469C34.9031 25.9518 34.8093 26.1421 34.6632 26.2882C34.5171 26.4343 34.3268 26.5281 34.1219 26.5549ZM45.0156 47.1875H37.75V32.1875H44.3125C44.5611 32.1875 44.7996 32.2863 44.9754 32.4621C45.1512 32.6379 45.25 32.8764 45.25 33.125V46.9531C45.25 47.0153 45.2253 47.0749 45.1814 47.1189C45.1374 47.1628 45.0778 47.1875 45.0156 47.1875Z" fill="#5CA800"/>
<path d="M42.4375 43.4375C42.2521 43.4375 42.0708 43.4925 41.9167 43.5955C41.7625 43.6985 41.6423 43.8449 41.5714 44.0162C41.5004 44.1875 41.4818 44.376 41.518 44.5579C41.5542 44.7398 41.6435 44.9068 41.7746 45.0379C41.9057 45.169 42.0727 45.2583 42.2546 45.2945C42.4365 45.3307 42.625 45.3121 42.7963 45.2411C42.9676 45.1702 43.114 45.05 43.217 44.8958C43.32 44.7417 43.375 44.5604 43.375 44.375C43.375 44.1264 43.2762 43.8879 43.1004 43.7121C42.9246 43.5363 42.6861 43.4375 42.4375 43.4375ZM42.4375 38.75C42.2521 38.75 42.0708 38.805 41.9167 38.908C41.7625 39.011 41.6423 39.1574 41.5714 39.3287C41.5004 39.5 41.4818 39.6885 41.518 39.8704C41.5542 40.0523 41.6435 40.2193 41.7746 40.3504C41.9057 40.4815 42.0727 40.5708 42.2546 40.607C42.4365 40.6432 42.625 40.6246 42.7963 40.5536C42.9676 40.4827 43.114 40.3625 43.217 40.2083C43.32 40.0542 43.375 39.8729 43.375 39.6875C43.375 39.4389 43.2762 39.2004 43.1004 39.0246C42.9246 38.8488 42.6861 38.75 42.4375 38.75ZM42.4375 34.0625C42.2521 34.0625 42.0708 34.1175 41.9167 34.2205C41.7625 34.3235 41.6423 34.4699 41.5714 34.6412C41.5004 34.8125 41.4818 35.001 41.518 35.1829C41.5542 35.3648 41.6435 35.5318 41.7746 35.6629C41.9057 35.794 42.0727 35.8833 42.2546 35.9195C42.4365 35.9557 42.625 35.9371 42.7963 35.8661C42.9676 35.7952 43.114 35.675 43.217 35.5208C43.32 35.3667 43.375 35.1854 43.375 35C43.375 34.7514 43.2762 34.5129 43.1004 34.3371C42.9246 34.1613 42.6861 34.0625 42.4375 34.0625ZM38.6875 43.4375C38.5021 43.4375 38.3208 43.4925 38.1667 43.5955C38.0125 43.6985 37.8923 43.8449 37.8214 44.0162C37.7504 44.1875 37.7318 44.376 37.768 44.5579C37.8042 44.7398 37.8935 44.9068 38.0246 45.0379C38.1557 45.169 38.3227 45.2583 38.5046 45.2945C38.6865 45.3307 38.875 45.3121 39.0463 45.2411C39.2176 45.1702 39.364 45.05 39.467 44.8958C39.57 44.7417 39.625 44.5604 39.625 44.375C39.625 44.1264 39.5262 43.8879 39.3504 43.7121C39.1746 43.5363 38.9361 43.4375 38.6875 43.4375ZM38.6875 38.75C38.5021 38.75 38.3208 38.805 38.1667 38.908C38.0125 39.011 37.8923 39.1574 37.8214 39.3287C37.7504 39.5 37.7318 39.6885 37.768 39.8704C37.8042 40.0523 37.8935 40.2193 38.0246 40.3504C38.1557 40.4815 38.3227 40.5708 38.5046 40.607C38.6865 40.6432 38.875 40.6246 39.0463 40.5536C39.2176 40.4827 39.364 40.3625 39.467 40.2083C39.57 40.0542 39.625 39.8729 39.625 39.6875C39.625 39.4389 39.5262 39.2004 39.3504 39.0246C39.1746 38.8488 38.9361 38.75 38.6875 38.75ZM38.6875 34.0625C38.5021 34.0625 38.3208 34.1175 38.1667 34.2205C38.0125 34.3235 37.8923 34.4699 37.8214 34.6412C37.7504 34.8125 37.7318 35.001 37.768 35.1829C37.8042 35.3648 37.8935 35.5318 38.0246 35.6629C38.1557 35.794 38.3227 35.8833 38.5046 35.9195C38.6865 35.9557 38.875 35.9371 39.0463 35.8661C39.2176 35.7952 39.364 35.675 39.467 35.5208C39.57 35.3667 39.625 35.1854 39.625 35C39.625 34.7514 39.5262 34.5129 39.3504 34.3371C39.1746 34.1613 38.9361 34.0625 38.6875 34.0625Z" fill="#5CA800"/>
</svg>
