<svg width="70" height="70" viewBox="0 0 70 70" fill="none" xmlns="http://www.w3.org/2000/svg">
<circle cx="35" cy="35" r="35" fill="#FFFDC6"/>
<g clip-path="url(#clip0_47_613)">
<path d="M41.8917 31.9C40.3934 29.4087 38.3329 27.3025 35.875 25.75C34.7674 25.048 33.5049 24.6278 32.1975 24.5261C30.8902 24.4245 29.5778 24.6444 28.375 25.1666C27.3229 25.6629 26.4075 26.4078 25.7077 27.337C25.0079 28.2662 24.5448 29.3517 24.3584 30.5C24.2917 30.9083 24.2334 31.3333 24.1834 31.6666H23.35C23.0645 31.6633 22.7811 31.7167 22.5164 31.8237C22.2516 31.9307 22.0107 32.0891 21.8077 32.2899C21.6046 32.4906 21.4434 32.7297 21.3333 32.9932C21.2233 33.2567 21.1667 33.5394 21.1667 33.825V40.95C21.1667 41.14 21.2422 41.3223 21.3766 41.4567C21.511 41.5911 21.6933 41.6666 21.8834 41.6666H23.325V41.3416C23.3229 40.57 23.5065 39.8092 23.8603 39.1235C24.2141 38.4378 24.7278 37.8473 25.3579 37.4019C25.9879 36.9565 26.716 36.6693 27.4804 36.5646C28.2449 36.4598 29.0233 36.5405 29.75 36.8L28.9167 37.6333C28.2512 37.5109 27.5651 37.5684 26.9293 37.7999C26.2935 38.0313 25.731 38.4284 25.3 38.95C25.0778 39.1729 24.8997 39.4359 24.775 39.725C24.5186 40.2212 24.3763 40.7684 24.3584 41.3266C24.3405 41.8848 24.4476 42.44 24.6718 42.9516C24.8959 43.4632 25.2315 43.9182 25.6541 44.2835C26.0766 44.6487 26.5754 44.915 27.114 45.0628C27.6526 45.2106 28.2175 45.2363 28.7673 45.1379C29.3171 45.0394 29.8379 44.8195 30.2918 44.494C30.7457 44.1685 31.1212 43.7457 31.3907 43.2566C31.6603 42.7674 31.8172 42.2242 31.85 41.6666H36.4167V41.3416C36.415 40.571 36.5986 39.8113 36.952 39.1265C37.3053 38.4417 37.8181 37.8518 38.4471 37.4066C39.0761 36.9614 39.8029 36.6739 40.5662 36.5683C41.3296 36.4628 42.1071 36.5422 42.8334 36.8L42 37.6333C41.3346 37.5109 40.6485 37.5684 40.0127 37.7999C39.3768 38.0313 38.8144 38.4284 38.3834 38.95C38.1611 39.1729 37.983 39.4359 37.8584 39.725C37.6054 40.2211 37.4662 40.7673 37.4507 41.324C37.4353 41.8806 37.544 42.4338 37.769 42.9432C37.9939 43.4526 38.3296 43.9055 38.7514 44.269C39.1733 44.6325 39.6708 44.8975 40.2079 45.0447C40.745 45.1919 41.3081 45.2177 41.8563 45.1201C42.4046 45.0225 42.9243 44.8041 43.3776 44.4806C43.8308 44.1571 44.2064 43.7367 44.477 43.25C44.7475 42.7633 44.9063 42.2224 44.9417 41.6666H47.1167C47.3068 41.6666 47.489 41.5911 47.6234 41.4567C47.7578 41.3223 47.8334 41.14 47.8334 40.95V39.4666C47.827 37.7238 47.2391 36.033 46.1628 34.6623C45.0864 33.2916 43.5833 32.3194 41.8917 31.9ZM29.5 31.6666H26.1667C26.1667 31.375 26.25 31.075 26.3 30.775C26.44 29.8639 26.8095 29.0035 27.3737 28.2745C27.9378 27.5456 28.6782 26.9722 29.525 26.6083L29.5 31.6666ZM28.1334 43.6333C27.7213 43.6333 27.3185 43.5111 26.9759 43.2822C26.6333 43.0533 26.3663 42.7279 26.2086 42.3472C26.0509 41.9665 26.0097 41.5476 26.0901 41.1435C26.1704 40.7394 26.3689 40.3682 26.6602 40.0768C26.9516 39.7855 27.3228 39.587 27.7269 39.5067C28.131 39.4263 28.5499 39.4675 28.9306 39.6252C29.3113 39.7829 29.6367 40.0499 29.8656 40.3925C30.0945 40.7351 30.2167 41.1379 30.2167 41.55C30.2167 42.1025 29.9972 42.6324 29.6065 43.0231C29.2158 43.4138 28.6859 43.6333 28.1334 43.6333ZM35.3334 35.8333H32.8334V34.1666H35.3334V35.8333ZM30.3334 31.6666V26.225C31.8991 26.0118 33.4903 26.3507 34.8334 27.1833C36.6788 28.3433 38.267 29.8692 39.5 31.6666H30.3334ZM41.2167 43.6333C40.8046 43.6333 40.4018 43.5111 40.0592 43.2822C39.7166 43.0533 39.4496 42.7279 39.2919 42.3472C39.1343 41.9665 39.093 41.5476 39.1734 41.1435C39.2538 40.7394 39.4522 40.3682 39.7435 40.0768C40.0349 39.7855 40.4061 39.587 40.8102 39.5067C41.2144 39.4263 41.6333 39.4675 42.0139 39.6252C42.3946 39.7829 42.72 40.0499 42.9489 40.3925C43.1778 40.7351 43.3 41.1379 43.3 41.55C43.3 42.1025 43.0805 42.6324 42.6898 43.0231C42.2991 43.4138 41.7692 43.6333 41.2167 43.6333Z" fill="#E0D703"/>
</g>
<defs>
<clipPath id="clip0_47_613">
<rect width="30" height="30" fill="white" transform="translate(19.5 20)"/>
</clipPath>
</defs>
</svg>
