<svg width="70" height="70" viewBox="0 0 70 70" fill="none" xmlns="http://www.w3.org/2000/svg">
<circle cx="35" cy="35" r="35" fill="#E7EDFF"/>
<path d="M44.5 33V39C44.5 40.0609 44.0786 41.0783 43.3284 41.8284C42.5783 42.5786 41.5609 43 40.5 43H28.5C27.4391 43 26.4217 42.5786 25.6716 41.8284C24.9214 41.0783 24.5 40.0609 24.5 39V33H44.5ZM29.51 37H29.5C29.3687 37.0007 29.2388 37.0272 29.1177 37.078C28.9966 37.1289 28.8868 37.2031 28.7944 37.2964C28.6078 37.4849 28.5037 37.7398 28.505 38.005C28.5057 38.1363 28.5322 38.2662 28.583 38.3873C28.6339 38.5084 28.7081 38.6182 28.8014 38.7106C28.8948 38.803 29.0054 38.8761 29.1269 38.9258C29.2485 38.9754 29.3787 39.0007 29.51 39C29.7752 39 30.0296 38.8946 30.2171 38.7071C30.4046 38.5196 30.51 38.2652 30.51 38C30.51 37.7348 30.4046 37.4804 30.2171 37.2929C30.0296 37.1054 29.7752 37 29.51 37ZM35.5 37H33.5C33.2348 37 32.9804 37.1054 32.7929 37.2929C32.6054 37.4804 32.5 37.7348 32.5 38C32.5 38.2652 32.6054 38.5196 32.7929 38.7071C32.9804 38.8946 33.2348 39 33.5 39H35.5C35.7652 39 36.0196 38.8946 36.2071 38.7071C36.3946 38.5196 36.5 38.2652 36.5 38C36.5 37.7348 36.3946 37.4804 36.2071 37.2929C36.0196 37.1054 35.7652 37 35.5 37ZM40.5 27C41.5609 27 42.5783 27.4214 43.3284 28.1716C44.0786 28.9217 44.5 29.9391 44.5 31H24.5C24.5 29.9391 24.9214 28.9217 25.6716 28.1716C26.4217 27.4214 27.4391 27 28.5 27H40.5Z" fill="#4472FE"/>
</svg>
