<svg width="71" height="70" viewBox="0 0 71 70" fill="none" xmlns="http://www.w3.org/2000/svg">
<circle cx="35.5" cy="35" r="35" fill="#E3FFD6"/>
<path d="M36.8838 22.8665L48.1338 34.1165C48.9213 34.904 48.3638 36.2502 47.25 36.2502H46V43.7502C46 44.7448 45.6049 45.6986 44.9017 46.4019C44.1984 47.1051 43.2446 47.5002 42.25 47.5002H41V38.7502C41.0001 37.7937 40.6346 36.8733 39.9784 36.1774C39.3222 35.4815 38.4249 35.0626 37.47 35.0065L37.25 35.0002H34.75C33.7554 35.0002 32.8016 35.3953 32.0984 36.0986C31.3951 36.8018 31 37.7557 31 38.7502V47.5002H29.75C28.7554 47.5002 27.8016 47.1051 27.0984 46.4019C26.3951 45.6986 26 44.7448 26 43.7502V36.2502H24.75C23.6375 36.2502 23.0788 34.904 23.8663 34.1165L35.1163 22.8665C35.3507 22.6321 35.6685 22.5005 36 22.5005C36.3315 22.5005 36.6493 22.6321 36.8838 22.8665ZM37.25 37.5002C37.5815 37.5002 37.8995 37.6319 38.1339 37.8663C38.3683 38.1008 38.5 38.4187 38.5 38.7502V47.5002H33.5V38.7502C33.5 38.4441 33.6124 38.1485 33.8159 37.9198C34.0193 37.691 34.2997 37.5448 34.6038 37.509L34.75 37.5002H37.25Z" fill="#50FF6C"/>
</svg>
