<svg width="70" height="70" viewBox="0 0 70 70" fill="none" xmlns="http://www.w3.org/2000/svg">
<circle cx="35" cy="35" r="35" fill="#F7D5FF"/>
<path fill-rule="evenodd" clip-rule="evenodd" d="M36.9414 23.2809C36.9414 22.9967 37.0543 22.7242 37.2552 22.5233C37.4562 22.3224 37.7287 22.2095 38.0129 22.2095H41.495C41.7792 22.2095 42.0517 22.3224 42.2526 22.5233C42.4535 22.7242 42.5664 22.9967 42.5664 23.2809V26.2959H45.5793C45.8634 26.2959 46.136 26.4088 46.3369 26.6097C46.5378 26.8106 46.6507 27.0832 46.6507 27.3673V30.8495C46.6507 31.1336 46.5378 31.4062 46.3369 31.6071C46.136 31.808 45.8634 31.9209 45.5793 31.9209H42.5664V34.9338C42.5664 35.2179 42.4535 35.4904 42.2526 35.6914C42.0517 35.8923 41.7792 36.0052 41.495 36.0052H38.0129C37.7287 36.0052 37.4562 35.8923 37.2552 35.6914C37.0543 35.4904 36.9414 35.2179 36.9414 34.9338V31.9209H33.9286C33.6444 31.9209 33.3719 31.808 33.171 31.6071C32.97 31.4062 32.8571 31.1336 32.8571 30.8495V27.3673C32.8571 27.0832 32.97 26.8106 33.171 26.6097C33.3719 26.4088 33.6444 26.2959 33.9286 26.2959H36.9414V23.2809ZM23.9493 35.0002H20V43.5716L23.9171 47.4888C24.7131 48.285 25.6582 48.9166 26.6984 49.3475C27.7385 49.7785 28.8534 50.0002 29.9793 50.0002H42.5C43.3525 50.0002 44.17 49.6615 44.7728 49.0587C45.3756 48.4559 45.7143 47.6384 45.7143 46.7859C45.7143 45.9334 45.3756 45.1159 44.7728 44.5131C44.17 43.9103 43.3525 43.5716 42.5 43.5716H36.5493C36.3265 44.3228 35.9123 45.0032 35.3474 45.5462C34.7824 46.0891 34.0861 46.4759 33.3266 46.6686C32.5671 46.8613 31.7706 46.8534 31.0151 46.6456C30.2597 46.4377 29.5712 46.0371 29.0171 45.483L25.91 42.3759C25.7856 42.2515 25.687 42.1039 25.6196 41.9413C25.5523 41.7788 25.5177 41.6047 25.5177 41.4288C25.5177 41.2529 25.5523 41.0787 25.6196 40.9162C25.687 40.7537 25.7856 40.606 25.91 40.4816C26.0344 40.3572 26.182 40.2586 26.3446 40.1913C26.5071 40.1239 26.6812 40.0893 26.8571 40.0893C27.033 40.0893 27.2072 40.1239 27.3697 40.1913C27.5322 40.2586 27.6799 40.3572 27.8043 40.4816L30.9114 43.5888C31.2387 43.9153 31.6768 44.1069 32.1388 44.1256C32.6008 44.1442 33.0529 43.9885 33.4054 43.6894C33.7579 43.3903 33.9852 42.9696 34.042 42.5107C34.0988 42.0519 33.9811 41.5884 33.7121 41.2123L30.0114 37.5116C29.2154 36.7154 28.2704 36.0838 27.2302 35.6528C26.19 35.2219 25.0752 35.0001 23.9493 35.0002Z" fill="#DF59FF"/>
</svg>
