<svg width="71" height="70" viewBox="0 0 71 70" fill="none" xmlns="http://www.w3.org/2000/svg">
<circle cx="35.5" cy="35" r="35" fill="#FEEFE2"/>
<g clip-path="url(#clip0_47_571)">
<path fill-rule="evenodd" clip-rule="evenodd" d="M39.35 20.4715C39.2029 20.3136 39.0254 20.1869 38.8283 20.0991C38.6312 20.0113 38.4183 19.964 38.2025 19.9602C37.9868 19.9564 37.7724 19.9961 37.5723 20.0769C37.3722 20.1578 37.1904 20.2781 37.0378 20.4307C36.8852 20.5833 36.7649 20.7651 36.684 20.9652C36.6032 21.1653 36.5635 21.3797 36.5673 21.5955C36.5711 21.8112 36.6183 22.0241 36.7062 22.2212C36.794 22.4183 36.9207 22.5958 37.0786 22.7429L38.6214 24.2858H33.9286C33.6444 24.2858 33.3719 24.3986 33.171 24.5996C32.97 24.8005 32.8571 25.073 32.8571 25.3572V36.0715C32.8571 36.3556 32.97 36.6282 33.171 36.8291C33.3719 37.03 33.6444 37.1429 33.9286 37.1429H40.0893V27.5C40.0893 27.1448 40.2304 26.8042 40.4816 26.553C40.7327 26.3019 41.0734 26.1608 41.4286 26.1608C41.7838 26.1608 42.1244 26.3019 42.3756 26.553C42.6268 26.8042 42.7679 27.1448 42.7679 27.5V37.1429H48.9286C49.2127 37.1429 49.4853 37.03 49.6862 36.8291C49.8871 36.6282 50 36.3556 50 36.0715V25.3572C50 25.073 49.8871 24.8005 49.6862 24.5996C49.4853 24.3986 49.2127 24.2858 48.9286 24.2858H44.2357L45.7786 22.7429C46.0625 22.4382 46.217 22.0353 46.2097 21.6189C46.2023 21.2026 46.0336 20.8053 45.7392 20.5109C45.4447 20.2164 45.0475 20.0477 44.6311 20.0404C44.2148 20.033 43.8118 20.1876 43.5071 20.4715L41.4286 22.5501L39.35 20.4715ZM23.9493 35H20V43.5715L23.9171 47.4886C24.7131 48.2849 25.6582 48.9165 26.6984 49.3474C27.7385 49.7783 28.8534 50.0001 29.9793 50H42.5C43.3525 50 44.17 49.6614 44.7728 49.0586C45.3756 48.4558 45.7143 47.6382 45.7143 46.7858C45.7143 45.9333 45.3756 45.1157 44.7728 44.5129C44.17 43.9101 43.3525 43.5715 42.5 43.5715H36.5493C36.3265 44.3227 35.9123 45.0031 35.3474 45.546C34.7824 46.089 34.0861 46.4757 33.3266 46.6685C32.5671 46.8612 31.7706 46.8533 31.0151 46.6454C30.2597 46.4376 29.5712 46.037 29.0171 45.4829L25.91 42.3758C25.7856 42.2514 25.687 42.1037 25.6196 41.9412C25.5523 41.7787 25.5177 41.6045 25.5177 41.4286C25.5177 41.2527 25.5523 41.0785 25.6196 40.916C25.687 40.7535 25.7856 40.6059 25.91 40.4815C26.0344 40.3571 26.182 40.2584 26.3446 40.1911C26.5071 40.1238 26.6812 40.0892 26.8571 40.0892C27.033 40.0892 27.2072 40.1238 27.3697 40.1911C27.5322 40.2584 27.6799 40.3571 27.8043 40.4815L30.9114 43.5886C31.2391 43.9145 31.6772 44.1054 32.1389 44.1234C32.6007 44.1415 33.0523 43.9854 33.4044 43.6862C33.7565 43.3869 33.9834 42.9663 34.04 42.5077C34.0965 42.0491 33.9788 41.5859 33.71 41.21L30.0114 37.5115C29.2154 36.7152 28.2704 36.0836 27.2302 35.6527C26.19 35.2218 25.0752 35 23.9493 35Z" fill="#FFAD65"/>
</g>
<defs>
<clipPath id="clip0_47_571">
<rect width="30" height="30" fill="white" transform="translate(20 20)"/>
</clipPath>
</defs>
</svg>
