<svg width="71" height="70" viewBox="0 0 71 70" fill="none" xmlns="http://www.w3.org/2000/svg">
<circle cx="35.5" cy="35" r="35" fill="#FFD5D5"/>
<path d="M43.125 23.75H40C39.8342 23.75 39.6753 23.8158 39.5581 23.9331C39.4408 24.0503 39.375 24.2092 39.375 24.375V24.4487L43.75 27.9488V24.375C43.75 24.2092 43.6842 24.0503 43.5669 23.9331C43.4497 23.8158 43.2908 23.75 43.125 23.75Z" fill="#FB4F4F"/>
<path d="M33.4375 31.875C33.4375 31.4606 33.6021 31.0632 33.8951 30.7701C34.1882 30.4771 34.5856 30.3125 35 30.3125C35.4144 30.3125 35.8118 30.4771 36.1049 30.7701C36.3979 31.0632 36.5625 31.4606 36.5625 31.875C36.5625 32.2894 36.3979 32.6868 36.1049 32.9799C35.8118 33.2729 35.4144 33.4375 35 33.4375C34.5856 33.4375 34.1882 33.2729 33.8951 32.9799C33.6021 32.6868 33.4375 32.2894 33.4375 31.875Z" fill="#FB4F4F"/>
<path fill-rule="evenodd" clip-rule="evenodd" d="M45.9375 33.6998L46.915 34.4823C47.1096 34.634 47.3561 34.7028 47.6011 34.6739C47.8461 34.645 48.0699 34.5207 48.2238 34.3279C48.3778 34.1351 48.4495 33.8894 48.4235 33.6441C48.3976 33.3988 48.2759 33.1736 48.085 33.0173L37.9288 24.8923C37.0975 24.2271 36.0646 23.8647 35 23.8647C33.9354 23.8647 32.9025 24.2271 32.0712 24.8923L21.915 33.0173C21.7207 33.1726 21.5961 33.3988 21.5686 33.646C21.541 33.8932 21.6128 34.1412 21.7681 34.3354C21.9234 34.5297 22.1496 34.6543 22.3968 34.6819C22.644 34.7094 22.892 34.6376 23.0863 34.4823L24.0625 33.6998V46.5623H22.5C22.2514 46.5623 22.0129 46.6611 21.8371 46.8369C21.6613 47.0127 21.5625 47.2512 21.5625 47.4998C21.5625 47.7485 21.6613 47.9869 21.8371 48.1627C22.0129 48.3385 22.2514 48.4373 22.5 48.4373H47.5C47.7486 48.4373 47.9871 48.3385 48.1629 48.1627C48.3387 47.9869 48.4375 47.7485 48.4375 47.4998C48.4375 47.2512 48.3387 47.0127 48.1629 46.8369C47.9871 46.6611 47.7486 46.5623 47.5 46.5623H45.9375V33.6998ZM31.5625 31.8748C31.5625 30.9631 31.9247 30.0888 32.5693 29.4441C33.214 28.7995 34.0883 28.4373 35 28.4373C35.9117 28.4373 36.786 28.7995 37.4307 29.4441C38.0753 30.0888 38.4375 30.9631 38.4375 31.8748C38.4375 32.7865 38.0753 33.6608 37.4307 34.3055C36.786 34.9502 35.9117 35.3123 35 35.3123C34.0883 35.3123 33.214 34.9502 32.5693 34.3055C31.9247 33.6608 31.5625 32.7865 31.5625 31.8748ZM35.0625 36.5623C35.8925 36.5623 36.6088 36.5623 37.1825 36.6398C37.7975 36.7223 38.3862 36.9086 38.8638 37.3861C39.3412 37.8636 39.5275 38.4523 39.61 39.0673C39.6825 39.6048 39.6875 40.2673 39.6875 41.0336V46.5623H37.8125V41.2498C37.8125 40.3398 37.81 39.7498 37.7525 39.3173C37.6975 38.9111 37.61 38.7836 37.5375 38.7123C37.465 38.6411 37.3387 38.5523 36.9325 38.4973C36.4987 38.4398 35.91 38.4373 35 38.4373C34.09 38.4373 33.5 38.4398 33.0675 38.4973C32.6613 38.5523 32.5338 38.6411 32.4625 38.7123C32.3913 38.7836 32.3025 38.9111 32.2475 39.3173C32.19 39.7511 32.1875 40.3398 32.1875 41.2498V46.5623H30.3125V41.1873C30.3125 40.3573 30.3125 39.6411 30.39 39.0673C30.4725 38.4523 30.6588 37.8636 31.1363 37.3861C31.6138 36.9086 32.2037 36.7223 32.8175 36.6398C33.3912 36.5623 34.1075 36.5623 34.9388 36.5623H35.0625Z" fill="#FB4F4F"/>
<path d="M33.4375 31.875C33.4375 31.4606 33.6021 31.0632 33.8951 30.7701C34.1882 30.4771 34.5856 30.3125 35 30.3125C35.4144 30.3125 35.8118 30.4771 36.1049 30.7701C36.3979 31.0632 36.5625 31.4606 36.5625 31.875C36.5625 32.2894 36.3979 32.6868 36.1049 32.9799C35.8118 33.2729 35.4144 33.4375 35 33.4375C34.5856 33.4375 34.1882 33.2729 33.8951 32.9799C33.6021 32.6868 33.4375 32.2894 33.4375 31.875Z" fill="#FB4F4F"/>
</svg>
