<svg width="70" height="70" viewBox="0 0 70 70" fill="none" xmlns="http://www.w3.org/2000/svg">
<circle cx="35" cy="35" r="35" fill="#D5FFFC"/>
<path d="M37 36.25H43.25V33.75H37V36.25ZM37 32.5H43.25V30H37V32.5ZM25.75 40H35.75V39.3125C35.75 38.375 35.2917 37.6304 34.375 37.0788C33.4583 36.5271 32.25 36.2508 30.75 36.25C29.25 36.2492 28.0417 36.5254 27.125 37.0788C26.2083 37.6321 25.75 38.3767 25.75 39.3125V40ZM30.75 35C31.4375 35 32.0262 34.7554 32.5163 34.2663C33.0063 33.7771 33.2508 33.1883 33.25 32.5C33.2492 31.8117 33.0046 31.2233 32.5163 30.735C32.0279 30.2467 31.4392 30.0017 30.75 30C30.0608 29.9983 29.4725 30.2433 28.985 30.735C28.4975 31.2267 28.2525 31.815 28.25 32.5C28.2475 33.185 28.4925 33.7738 28.985 34.2663C29.4775 34.7587 30.0658 35.0033 30.75 35ZM22 45V25H47V45H22Z" fill="#00D8C8"/>
</svg>
