<svg width="25" height="25" viewBox="0 0 25 25" fill="none" xmlns="http://www.w3.org/2000/svg">
<g clip-path="url(#clip0_601_1520)">
<path d="M4.42706 4.16699C3.80546 4.16699 3.20932 4.41392 2.76978 4.85346C2.33024 5.293 2.08331 5.88914 2.08331 6.51074V9.11491C2.08331 9.73651 2.33024 10.3327 2.76978 10.7722C3.20932 11.2117 3.80546 11.4587 4.42706 11.4587H7.03123C7.65283 11.4587 8.24897 11.2117 8.68851 10.7722C9.12805 10.3327 9.37498 9.73651 9.37498 9.11491V6.51074C9.37498 5.88914 9.12805 5.293 8.68851 4.85346C8.24897 4.41392 7.65283 4.16699 7.03123 4.16699H4.42706ZM11.7187 5.20866C11.5115 5.20866 11.3128 5.29097 11.1663 5.43748C11.0198 5.58399 10.9375 5.78271 10.9375 5.98991C10.9375 6.19711 11.0198 6.39582 11.1663 6.54234C11.3128 6.68885 11.5115 6.77116 11.7187 6.77116H22.1354C22.3426 6.77116 22.5413 6.68885 22.6878 6.54234C22.8343 6.39582 22.9166 6.19711 22.9166 5.98991C22.9166 5.78271 22.8343 5.58399 22.6878 5.43748C22.5413 5.29097 22.3426 5.20866 22.1354 5.20866H11.7187ZM11.7187 8.33366C11.5115 8.33366 11.3128 8.41597 11.1663 8.56248C11.0198 8.70899 10.9375 8.90771 10.9375 9.11491C10.9375 9.32211 11.0198 9.52082 11.1663 9.66734C11.3128 9.81385 11.5115 9.89616 11.7187 9.89616H19.0104C19.2176 9.89616 19.4163 9.81385 19.5628 9.66734C19.7093 9.52082 19.7916 9.32211 19.7916 9.11491C19.7916 8.90771 19.7093 8.70899 19.5628 8.56248C19.4163 8.41597 19.2176 8.33366 19.0104 8.33366H11.7187ZM4.42706 13.542C3.80546 13.542 3.20932 13.7889 2.76978 14.2285C2.33024 14.668 2.08331 15.2641 2.08331 15.8857V18.4899C2.08331 18.7977 2.14394 19.1025 2.26172 19.3868C2.3795 19.6712 2.55214 19.9296 2.76978 20.1472C2.98742 20.3648 3.24579 20.5375 3.53015 20.6553C3.81451 20.773 4.11928 20.8337 4.42706 20.8337H7.03123C7.33902 20.8337 7.64379 20.773 7.92814 20.6553C8.2125 20.5375 8.47087 20.3648 8.68851 20.1472C8.90615 19.9296 9.07879 19.6712 9.19657 19.3868C9.31436 19.1025 9.37498 18.7977 9.37498 18.4899V15.8857C9.37498 15.2641 9.12805 14.668 8.68851 14.2285C8.24897 13.7889 7.65283 13.542 7.03123 13.542H4.42706ZM11.7187 14.5837C11.5115 14.5837 11.3128 14.666 11.1663 14.8125C11.0198 14.959 10.9375 15.1577 10.9375 15.3649C10.9375 15.5721 11.0198 15.7708 11.1663 15.9173C11.3128 16.0638 11.5115 16.1462 11.7187 16.1462H22.1354C22.3426 16.1462 22.5413 16.0638 22.6878 15.9173C22.8343 15.7708 22.9166 15.5721 22.9166 15.3649C22.9166 15.1577 22.8343 14.959 22.6878 14.8125C22.5413 14.666 22.3426 14.5837 22.1354 14.5837H11.7187ZM11.7187 17.7087C11.5115 17.7087 11.3128 17.791 11.1663 17.9375C11.0198 18.084 10.9375 18.2827 10.9375 18.4899C10.9375 18.6971 11.0198 18.8958 11.1663 19.0423C11.3128 19.1888 11.5115 19.2712 11.7187 19.2712H19.0104C19.2176 19.2712 19.4163 19.1888 19.5628 19.0423C19.7093 18.8958 19.7916 18.6971 19.7916 18.4899C19.7916 18.2827 19.7093 18.084 19.5628 17.9375C19.4163 17.791 19.2176 17.7087 19.0104 17.7087H11.7187Z" fill="#ADB5BD"/>
</g>
<defs>
<clipPath id="clip0_601_1520">
<rect width="25" height="25" fill="white"/>
</clipPath>
</defs>
</svg>
